<svg width="150" height="150" viewBox="0 0 150 150" fill="none" xmlns="http://www.w3.org/2000/svg">
<path d="M74.9851 15C98.6026 15 118.065 32.5125 119.865 55.1625L119.97 56.835L120 58.515L119.993 85.485L126.93 102.15C127.1 102.555 127.233 102.973 127.328 103.403L127.448 104.048L127.508 105.038C127.499 106.692 126.944 108.298 125.928 109.605C124.912 110.911 123.492 111.845 121.89 112.26L121.02 112.463L120.008 112.538L93.7501 112.53L93.7125 113.738C93.4112 118.496 91.3086 122.96 87.8324 126.223C84.3563 129.486 79.7677 131.302 75.0001 131.302C70.2324 131.302 65.6438 129.486 62.1677 126.223C58.6915 122.96 56.5889 118.496 56.2876 113.738L56.2501 112.53H29.9926C29.3342 112.531 28.6785 112.445 28.0426 112.275L27.1126 111.96C25.5986 111.322 24.3361 110.204 23.519 108.779C22.702 107.353 22.3756 105.699 22.5901 104.07L22.7476 103.11L23.0701 102.15L29.9926 85.5075L30.0001 58.4475L30.0301 56.76C30.9526 33.3825 50.7826 15 74.9851 15ZM86.25 112.53H63.7501L63.8026 113.588C64.0549 116.185 65.2021 118.613 67.0478 120.457C68.8935 122.302 71.3229 123.447 73.9201 123.698L75.0001 123.75C77.7955 123.75 80.4908 122.709 82.5609 120.831C84.6309 118.952 85.9273 116.37 86.1976 113.588L86.25 112.53ZM74.9851 22.5C55.3126 22.5 39.2101 36.93 37.6351 55.3875L37.5301 56.9775L37.5001 58.515V86.25L37.2151 87.69L29.9926 105.038L119.678 105.053L120.015 105.038L112.785 87.69L112.5 86.25V58.59L112.47 57.06C111.683 37.7625 95.2126 22.5 74.9851 22.5Z" fill="#424242"/>
</svg>
