<svg width="150" height="150" viewBox="0 0 150 150" fill="none" xmlns="http://www.w3.org/2000/svg">
<path d="M135.938 101.562L106.25 131.25L89.0625 112.5L96.3125 105.25L106.25 115.188L128.688 92.75L135.938 101.562ZM50 87.5C50 76.4375 62.5 56 75 39.9375C84.375 52.0625 93.75 66.6875 97.9375 77.9375C101.688 76.3125 105.813 75.375 110.125 75C101.938 50.625 75 20.3125 75 20.3125C75 20.3125 37.5 62.5 37.5 87.5C37.5 108.188 54.3125 125 75 125H77.125C75.75 121 75 116.875 75 112.5C61.1875 112.5 50 101.312 50 87.5Z" fill="#E53935"/>
</svg>
