<svg width="150" height="150" viewBox="0 0 150 150" fill="none" xmlns="http://www.w3.org/2000/svg">
<path d="M111.75 73.701L109.501 75L111.75 76.299L132.307 88.1707C132.308 88.1712 132.308 88.1717 132.309 88.1721C134.614 89.5182 135.399 92.4198 134.079 94.6817L134.076 94.6868L121.579 116.307C121.579 116.307 121.579 116.308 121.578 116.309C120.232 118.613 117.33 119.399 115.068 118.079L115.063 118.076L94.5002 106.201L92.25 104.902V107.5V131.25C92.25 133.859 90.1091 136 87.5 136H62.5C59.891 136 57.75 133.859 57.75 131.25V107.5V104.902L55.4999 106.201L34.9522 118.068C34.9499 118.069 34.9476 118.07 34.9453 118.071C32.6523 119.357 29.7532 118.588 28.4219 116.309C28.4215 116.308 28.4211 116.307 28.4207 116.307L15.9324 94.7021C15.9311 94.6997 15.9297 94.6974 15.9284 94.695C14.6436 92.4021 15.4116 89.5035 17.6908 88.1722C17.6916 88.1717 17.6925 88.1712 17.6934 88.1707L38.2502 76.299L40.4994 75L38.2502 73.701L17.6934 61.8293C17.6925 61.8288 17.6917 61.8283 17.6908 61.8279C15.3864 60.4818 14.6013 57.5802 15.9207 55.3183L15.9237 55.3132L28.4207 33.6933C28.4212 33.6925 28.4217 33.6917 28.4222 33.6908C29.06 32.5989 30.102 31.8019 31.3228 31.4722C32.5427 31.1428 33.8431 31.3063 34.9433 31.9274C34.9451 31.9284 34.9468 31.9293 34.9486 31.9303L55.4999 43.799L57.75 45.0984V42.5V18.75C57.75 16.1409 59.891 14 62.5 14H87.5C90.1091 14 92.25 16.1409 92.25 18.75V42.5V45.0984L94.5002 43.799L115.052 31.9303C115.053 31.9293 115.055 31.9283 115.057 31.9273C116.157 31.3063 117.457 31.1428 118.677 31.4722C119.898 31.802 120.94 32.5992 121.578 33.6914C121.579 33.6921 121.579 33.6927 121.579 33.6933L134.068 55.2979C134.069 55.3002 134.07 55.3026 134.072 55.3049C135.356 57.5978 134.589 60.4965 132.309 61.8279C132.308 61.8283 132.308 61.8288 132.307 61.8293L111.75 73.701ZM114.438 106.737L115.739 107.488L116.488 106.185L122.738 95.3099L123.484 94.0116L122.187 93.2632L92.9532 76.3975C91.8411 75.7122 91.9044 74.1439 92.936 73.5499L92.9371 73.5493L122.187 56.6743L123.487 55.9241L122.736 54.6243L116.486 43.8118L115.736 42.5143L114.438 43.2632L85.188 60.1382L85.1739 60.1463L85.1601 60.1547C84.1442 60.7704 82.75 60.0114 82.75 58.75V25V23.5H81.25H68.75H67.25V25V58.75C67.25 60.0427 65.8656 60.8073 64.811 60.2001L35.5621 43.3257L34.2639 42.5768L33.5139 43.8743L27.2639 54.6868L26.5126 55.9866L27.813 56.7368L57.0469 73.6025C58.159 74.2878 58.0957 75.8561 57.0641 76.4501L57.063 76.4507L27.813 93.3257L26.5126 94.0759L27.2639 95.3757L33.5139 106.188L34.2639 107.486L35.5621 106.737L64.8121 89.8618L64.8262 89.8537L64.84 89.8453C65.8559 89.2296 67.25 89.9886 67.25 91.25V125V126.5H68.75H81.25H82.75V125V91.25C82.75 89.9524 84.1219 89.2161 85.1601 89.8453L85.1739 89.8537L85.188 89.8618L114.438 106.737Z" fill="none" stroke="#424242" stroke-width="3"/>
</svg>
